<?xml version="1.0" encoding="UTF-8" standalone="no"?>
<!-- Created with Inkscape (http://www.inkscape.org/) -->

<svg
   version="1.1"
   id="svg1"
   width="80"
   height="80"
   viewBox="0 0 80 80"
   xmlns:xlink="http://www.w3.org/1999/xlink"
   xmlns="http://www.w3.org/2000/svg"
   xmlns:svg="http://www.w3.org/2000/svg">
  <defs
     id="defs1" />
  <g
     id="g1">
    <path
       style="fill:#eeeeee;fill-opacity:1;stroke:none;stroke-width:1px;stroke-linecap:butt;stroke-linejoin:miter;stroke-opacity:1"
       d="M 63.360596,30.987453 58.523441,8.5611423 58.496604,3.0980782 56.141709,8.7162551 45.459395,22.730084 l 8.830513,4.729348 5.010007,5.266558 2.501365,9.619723 -2.879822,11.707606 -4.488719,8.180495 -0.338883,12.656477 3.513919,-11.335062 4.776657,-7.171124 3.083151,-12.218887 -2.922126,-10.838792 -4.823508,-6.912754 -10.38619,-4.019287 9.297671,-10.323872 z"
       id="path1" />
    <path
       style="fill:#eeeeee;fill-opacity:1;stroke:none;stroke-width:1px;stroke-linecap:butt;stroke-linejoin:miter;stroke-opacity:1"
       d="m 14.532417,35.22992 0.931589,-22.923124 -0.907603,-5.3872112 3.280787,5.1328232 12.921037,11.98107 -7.891886,6.169508 -4.035785,6.045596 -0.8198,9.905746 4.839127,11.042838 5.821285,7.292581 2.497836,12.412175 L 25.768809,66.334558 19.836403,60.085716 14.709525,48.57389 15.73546,37.395084 19.306034,29.759418 28.852092,24.023534 17.926201,15.441348 Z"
       id="path2" />
    <path
       style="fill:#eeeeee;fill-opacity:1;stroke:none;stroke-width:1px;stroke-linecap:butt;stroke-linejoin:miter;stroke-opacity:1"
       d="m 35.316791,44.420404 -1.491312,-4.587655 -7.980577,1.093068 -0.144423,3.083606 4.16462,1.449463 -3.215293,-1.914574 -0.123726,-1.992358 6.510416,-0.975027 0.584516,0.915495 -0.3842,1.145777 -1.116436,0.801321 1.743029,0.08302 z"
       id="path3" />
    <path
       style="fill:#eeeeee;fill-opacity:1;stroke:none;stroke-width:1px;stroke-linecap:butt;stroke-linejoin:miter;stroke-opacity:1"
       d="m 47.020792,42.931217 0.556197,-5.119129 7.789791,-0.71161 0.831716,2.972832 -3.733928,2.345802 2.704521,-2.586363 -0.325863,-1.969419 -6.330562,0.497218 -0.467278,1.134113 0.603144,1.233594 1.267603,0.530777 -1.680103,0.471482 z"
       id="path4" />
    <path
       style="fill:#eeeeee;fill-opacity:1;stroke:none;stroke-width:1px;stroke-linecap:butt;stroke-linejoin:miter;stroke-opacity:1"
       d="m 36.821138,54.701301 1.111528,1.10204 c 0,0 0.60566,-2.269535 1.761656,-1.017689 1.155996,1.251847 0.02445,2.467348 0.02445,2.467348 l 2.394098,1.667815 2.194339,-2.150124 c 0,0 -2.141841,-0.516322 -1.261254,-2.247019 0.880586,-1.730697 2.080567,0.44942 2.080567,0.44942 l 0.951671,-1.289801 -1.812959,-1.340943 -5.517356,0.05983 z"
       id="path5" />
    <path
       style="fill:#eeeeee;fill-opacity:1;stroke:none;stroke-width:1px;stroke-linecap:butt;stroke-linejoin:miter;stroke-opacity:1"
       d="m 32.047829,60.82295 c 0,0 2.146988,1.770018 5.37921,1.554837 3.232222,-0.215181 4.877448,-2.390152 4.877448,-2.390152 0,0 2.198076,1.416825 4.897312,1.262622 2.699236,-0.154203 4.497931,-2.137804 4.497931,-2.137804 0,0 -1.859535,2.976937 -4.47405,3.15741 -2.614515,0.180472 -4.670328,-0.962974 -4.670328,-0.962974 0,0 -2.488173,2.113811 -5.362536,2.00464 -2.874364,-0.10917 -5.144986,-2.488579 -5.144987,-2.488579 z"
       id="path6" />
  </g>
</svg>
